HIERARCHY
ROOT root
{
	OFFSET 0.000000 0.000000 0.000000
	CHANNELS 6 Xposition Yposition Zposition Zrotation Yrotation Xrotation
	JOINT lhip
	{
		OFFSET 0.058581 -0.082280 -0.017664
		CHANNELS 3 Zrotation Yrotation Xrotation
		JOINT lknee
		{
			OFFSET 0.043451 -0.386469 0.008037
			CHANNELS 3 Zrotation Yrotation Xrotation
			JOINT lankle
			{
				OFFSET -0.014790 -0.426874 -0.037428
				CHANNELS 3 Zrotation Yrotation Xrotation
				JOINT ltoe
				{
					OFFSET 0.041054 -0.060286 0.122042
					CHANNELS 3 Zrotation Yrotation Xrotation
					End Site
					{
						OFFSET 0.000000 0.000000 0.000000
					}
				}
			}
		}
	}
	JOINT rhip
	{
		OFFSET -0.060310 -0.090513 -0.013543
		CHANNELS 3 Zrotation Yrotation Xrotation
		JOINT rknee
		{
			OFFSET -0.043257 -0.383688 -0.004843
			CHANNELS 3 Zrotation Yrotation Xrotation
			JOINT rankle
			{
				OFFSET 0.019056 -0.420046 -0.034562
				CHANNELS 3 Zrotation Yrotation Xrotation
				JOINT rtoe
				{
					OFFSET -0.034840 -0.062106 0.130323
					CHANNELS 3 Zrotation Yrotation Xrotation
					End Site
					{
						OFFSET 0.000000 0.000000 0.000000
					}
				}
			}
		}
	}
	JOINT lowerback
	{
		OFFSET 0.004439 0.124404 -0.038385
		CHANNELS 3 Zrotation Yrotation Xrotation
		JOINT upperback
		{
			OFFSET 0.004488 0.137956 0.026820
			CHANNELS 3 Zrotation Yrotation Xrotation
			JOINT chest
			{
				OFFSET -0.002265 0.056032 0.002855
				CHANNELS 3 Zrotation Yrotation Xrotation
				JOINT lowerneck
				{
					OFFSET -0.013390 0.211636 -0.033468
					CHANNELS 3 Zrotation Yrotation Xrotation
					JOINT upperneck
					{
						OFFSET 0.010113 0.088937 0.050410
						CHANNELS 3 Zrotation Yrotation Xrotation
						End Site
						{
							OFFSET 0.000000 0.000000 0.000000
						}
					}
				}
				JOINT lclavicle
				{
					OFFSET 0.071702 0.114000 -0.018898
					CHANNELS 3 Zrotation Yrotation Xrotation
					JOINT lshoulder
					{
						OFFSET 0.122921 0.045205 -0.019046
						CHANNELS 3 Zrotation Yrotation Xrotation
						JOINT lelbow
						{
							OFFSET 0.255332 -0.015649 -0.022946
							CHANNELS 3 Zrotation Yrotation Xrotation
							JOINT lwrist
							{
								OFFSET 0.265709 0.012698 -0.007375
								CHANNELS 3 Zrotation Yrotation Xrotation
								End Site
								{
									OFFSET 0.000000 0.000000 0.000000
								}
							}
						}
					}
				}
				JOINT rclavicle
				{
					OFFSET -0.082954 0.112472 -0.023707
					CHANNELS 3 Zrotation Yrotation Xrotation
					JOINT rshoulder
					{
						OFFSET -0.113228 0.046853 -0.008472
						CHANNELS 3 Zrotation Yrotation Xrotation
						JOINT relbow
						{
							OFFSET -0.260127 -0.014369 -0.031269
							CHANNELS 3 Zrotation Yrotation Xrotation
							JOINT rwrist
							{
								OFFSET -0.269108 0.006794 -0.006027
								CHANNELS 3 Zrotation Yrotation Xrotation
								End Site
								{
									OFFSET 0.000000 0.000000 0.000000
								}
							}
						}
					}
				}
			}
		}
	}
}
MOTION
Frames: 5
Frame Time: 0.033333
0.295402 0.722649 0.986753 -124.271416 6.490361 96.442620 5.296020 3.848625 1.582937 -5.310594 1.301661 8.653396 0.508385 8.151791 -15.732788 0.000000 -0.000000 0.000000 6.281527 2.298947 -21.137649 -1.119224 -11.566085 7.876784 1.726810 -8.225182 -0.347885 0.000000 -0.000000 0.000000 -2.752496 -3.905692 12.213978 4.003314 -2.492304 3.226000 1.165986 -1.824661 4.066464 8.345732 -2.323073 7.602150 2.814485 -8.568812 17.540198 -26.404014 10.355666 5.063727 -57.610615 -6.146681 9.278237 20.055002 -41.628432 -1.256221 1.090249 -13.178573 -13.294181 31.025038 -3.603380 1.998476 57.560535 6.779713 14.186569 -20.324571 28.730826 -3.150967 6.681886 10.825854 -7.891388 
0.290141 0.730583 0.988248 -124.800917 5.926347 96.315455 4.809686 3.842925 1.547324 -5.254319 1.247147 9.882885 -0.047329 8.611807 -15.246160 0.000000 -0.000000 0.000000 5.997421 2.345030 -20.548273 -1.099051 -10.641440 8.055612 1.211336 -7.906590 -0.853321 0.000000 -0.000000 0.000000 -2.784658 -3.479842 11.665653 3.979789 -2.400729 4.051881 1.258021 -1.648736 3.825991 8.317814 -2.100957 7.279094 2.569157 -8.771057 16.917722 -26.453020 10.025311 4.900776 -57.734665 -5.987953 9.383192 20.488216 -42.159751 -2.024355 1.651390 -12.733207 -14.432831 30.706971 -2.955271 2.121838 58.273684 7.531366 14.556984 -21.064226 29.401368 -3.675284 5.920629 10.591054 -8.319733 
0.281079 0.738197 0.989395 -124.762588 5.483529 95.251594 4.619717 4.397394 2.365375 -5.050623 0.633487 11.935961 -0.640917 8.079828 -14.821296 0.000000 -0.000000 0.000000 5.542720 1.185193 -18.443705 -0.331827 -10.332224 7.724618 0.820497 -7.134218 -1.845957 0.000000 -0.000000 0.000000 -1.745655 -3.194416 11.423289 3.624833 -2.641128 6.006478 0.709943 -1.915993 3.400355 8.384894 -1.957820 6.481389 2.809435 -8.156038 16.057440 -26.065259 9.343743 4.981060 -58.012821 -5.725145 9.290086 20.465062 -43.429629 -2.240378 2.552980 -12.625295 -15.408785 30.464975 -1.845498 1.892793 58.476543 8.252303 14.533654 -20.946045 30.405565 -3.597538 5.376197 10.621088 -7.652132 
0.277399 0.747226 0.990301 -124.570483 5.347672 95.631503 5.366564 3.833913 0.496160 -5.760559 1.126202 15.698716 -2.556639 7.178086 -14.392357 0.000000 -0.000000 0.000000 5.748293 1.601814 -18.566762 -0.507267 -10.346345 8.128993 0.295189 -7.478035 -2.371629 0.000000 -0.000000 0.000000 -1.569020 -2.989381 11.168029 4.042932 -2.617293 5.663813 0.808456 -1.816932 3.480379 8.828282 -1.886827 5.742614 2.737380 -8.395374 15.801798 -25.791016 9.262946 4.868493 -57.797768 -5.701645 9.668965 20.048616 -44.813360 -1.502288 2.237936 -13.119147 -14.918532 30.352024 -1.781204 1.572462 58.126541 8.924374 14.846292 -20.558414 32.128713 -2.884994 5.505444 11.136318 -8.042222 
0.271525 0.756186 0.990909 -124.595269 5.038228 95.001053 6.133704 4.379987 -0.555175 -6.594830 1.282360 20.098054 -3.874767 6.089812 -13.412613 0.000000 -0.000000 0.000000 5.873725 1.296751 -17.499335 -0.714827 -10.094869 8.680737 -0.167797 -7.423842 -3.171664 0.000000 -0.000000 0.000000 -1.310591 -2.669721 11.442689 4.391899 -2.596469 5.959752 1.059860 -1.633391 3.250862 8.466072 -1.645363 5.030886 2.202717 -8.546967 15.889887 -26.067871 9.209752 4.300243 -57.512813 -5.559963 9.456258 19.226077 -46.767448 -0.360744 1.368255 -13.406561 -14.370748 29.802604 -1.045636 1.842692 57.679772 9.565952 14.635657 -20.910397 34.181720 -3.005351 6.340297 11.433675 -8.147063 
